<svg width="789" height="42" viewBox="0 0 789 42" fill="none" xmlns="http://www.w3.org/2000/svg">
<path fill-rule="evenodd" clip-rule="evenodd" d="M620.809 27.0718C620.809 26.9316 620.739 26.7841 620.598 26.7137C620.456 26.6397 620.297 26.6324 620.138 26.6324H619.315V28.2935H619.546V27.5273H619.97L620.509 28.2935H620.783L620.213 27.5273C620.549 27.519 620.809 27.3986 620.809 27.0718ZM619.899 27.3673H619.545V26.7799H620.084C620.318 26.7799 620.575 26.8112 620.575 27.0681C620.576 27.4064 620.164 27.3673 619.899 27.3673ZM610.047 19.0411L613.499 15.7966C613.699 15.5585 613.798 15.3917 613.798 15.2489C613.798 15.0107 613.565 14.9153 612.834 14.9153H611.963V12.867H621.389V14.9153H620.151C618.72 14.9153 618.455 15.1055 616.459 17.3206L610.998 22.5118V25.6797C610.998 26.4901 611.463 26.7752 612.794 26.7752H614.856V28.7516H601.653V26.7752H603.714C605.044 26.7752 605.51 26.4901 605.51 25.6797V22.5118L599.078 16.2485C598.016 15.1535 598.162 14.9153 595.203 14.9153V12.867H607.144V14.9153H606.293C605.429 14.9153 605.062 15.0581 605.062 15.3437C605.062 15.5824 605.328 15.7727 605.494 15.9629L608.748 19.0849C609.135 19.4388 609.607 19.4847 610.047 19.0411ZM529.934 12.8664H532.815V18.5819H530.155C529.919 17.4395 529.107 16.9949 528.366 16.3955C527.03 15.3145 524.136 14.4144 521.702 14.4144C518.561 14.4144 515.91 15.2723 515.91 16.5336C515.91 20.0351 533.875 17.2487 533.875 23.869C533.875 27.322 530.027 29.2509 523.116 29.2509C520.723 29.2509 517.103 28.5974 514.967 27.5987C514.297 27.2584 514.013 27.9208 513.888 28.7511H510.935V22.8449H513.606C514.195 24.3454 515.007 24.6545 515.753 25.2502C517.049 26.2983 520.132 27.0609 522.96 27.0364C527.223 26.9993 528.689 26.179 528.689 24.988C528.689 23.7976 527.239 23.5115 522.567 22.8688L518.6 22.2971C514.124 21.7013 510.865 20.8205 510.865 17.6771C510.865 14.4144 514.988 12.3661 521.507 12.3661C524.254 12.3661 526.552 12.6892 528.758 13.7869C529.369 14.1366 529.942 14.1783 529.934 12.8664ZM586.145 22.4357L586.202 16.0833C586.202 15.2499 585.709 14.9643 584.302 14.9643H582.648V12.9879H593.169V14.9643H591.797C590.389 14.9643 589.896 15.2504 589.896 16.0833V28.872L585.779 28.8434L572.444 17.7267V25.8001C572.444 26.61 572.936 26.9191 574.344 26.9191H576.174V28.872H565.248V26.9191H567.059C568.466 26.9191 568.958 26.6095 568.958 25.8001V16.0833C568.958 15.2499 568.466 14.9643 567.059 14.9643H565.248V12.9879H574.695L586.145 22.4357ZM550.905 12.2462C542.52 12.2462 537.272 15.5095 537.272 20.7481C537.272 25.8928 542.448 29.1311 550.649 29.1311C559.36 29.1311 564.428 25.9403 564.428 20.4864C564.428 15.5809 558.96 12.2462 550.905 12.2462ZM550.714 27.0598C546.073 27.0598 543.406 24.7019 543.406 20.6292C543.406 16.6525 546.189 14.2945 550.946 14.2945C555.51 14.2945 558.177 16.7004 558.177 20.7965C558.177 24.7973 555.471 27.0598 550.714 27.0598Z" fill="#F40009"/>
<path fill-rule="evenodd" clip-rule="evenodd" d="M620.809 27.0718C620.809 26.9316 620.739 26.7841 620.598 26.7137C620.456 26.6397 620.297 26.6324 620.138 26.6324H619.315V28.2935H619.546V27.5273H619.97L620.509 28.2935H620.783L620.213 27.5273C620.549 27.519 620.809 27.3986 620.809 27.0718ZM619.899 27.3673H619.545V26.7799H620.084C620.318 26.7799 620.575 26.8112 620.575 27.0681C620.576 27.4064 620.164 27.3673 619.899 27.3673ZM610.047 19.0411L613.499 15.7966C613.699 15.5585 613.798 15.3917 613.798 15.2489C613.798 15.0107 613.565 14.9153 612.834 14.9153H611.963V12.867H621.389V14.9153H620.151C618.72 14.9153 618.455 15.1055 616.459 17.3206L610.998 22.5118V25.6797C610.998 26.4901 611.463 26.7752 612.794 26.7752H614.856V28.7516H601.653V26.7752H603.714C605.044 26.7752 605.51 26.4901 605.51 25.6797V22.5118L599.078 16.2485C598.016 15.1535 598.162 14.9153 595.203 14.9153V12.867H607.144V14.9153H606.293C605.429 14.9153 605.062 15.0581 605.062 15.3437C605.062 15.5824 605.328 15.7727 605.494 15.9629L608.748 19.0849C609.135 19.4388 609.607 19.4847 610.047 19.0411ZM529.934 12.8664H532.815V18.5819H530.155C529.919 17.4395 529.107 16.9949 528.366 16.3955C527.03 15.3145 524.136 14.4144 521.702 14.4144C518.561 14.4144 515.91 15.2723 515.91 16.5336C515.91 20.0351 533.875 17.2487 533.875 23.869C533.875 27.322 530.027 29.2509 523.116 29.2509C520.723 29.2509 517.103 28.5974 514.967 27.5987C514.297 27.2584 514.013 27.9208 513.888 28.7511H510.935V22.8449H513.606C514.195 24.3454 515.007 24.6545 515.753 25.2502C517.049 26.2983 520.132 27.0609 522.96 27.0364C527.223 26.9993 528.689 26.179 528.689 24.988C528.689 23.7976 527.239 23.5115 522.567 22.8688L518.6 22.2971C514.124 21.7013 510.865 20.8205 510.865 17.6771C510.865 14.4144 514.988 12.3661 521.507 12.3661C524.254 12.3661 526.552 12.6892 528.758 13.7869C529.369 14.1366 529.942 14.1783 529.934 12.8664ZM586.145 22.4357L586.202 16.0833C586.202 15.2499 585.709 14.9643 584.302 14.9643H582.648V12.9879H593.169V14.9643H591.797C590.389 14.9643 589.896 15.2504 589.896 16.0833V28.872L585.779 28.8434L572.444 17.7267V25.8001C572.444 26.61 572.936 26.9191 574.344 26.9191H576.174V28.872H565.248V26.9191H567.059C568.466 26.9191 568.958 26.6095 568.958 25.8001V16.0833C568.958 15.2499 568.466 14.9643 567.059 14.9643H565.248V12.9879H574.695L586.145 22.4357ZM550.905 12.2462C542.52 12.2462 537.272 15.5095 537.272 20.7481C537.272 25.8928 542.448 29.1311 550.649 29.1311C559.36 29.1311 564.428 25.9403 564.428 20.4864C564.428 15.5809 558.96 12.2462 550.905 12.2462ZM550.714 27.0598C546.073 27.0598 543.406 24.7019 543.406 20.6292C543.406 16.6525 546.189 14.2945 550.946 14.2945C555.51 14.2945 558.177 16.7004 558.177 20.7965C558.177 24.7973 555.471 27.0598 550.714 27.0598Z" fill="#434343"/>
<path d="M177.052 13.3559C175.703 13.3559 175.298 13.8822 175.298 15.0546V16.9925H178.913L178.562 20.1506H175.298V29.6966H170.956V20.1506H168.042V17.0164H170.956V15.1263C170.956 11.9204 172.412 10.2457 176.431 10.2457C177.268 10.2457 178.131 10.2935 178.967 10.3892V13.3559" fill="#F40009"/>
<path d="M177.052 13.3559C175.703 13.3559 175.298 13.8822 175.298 15.0546V16.9925H178.913L178.562 20.1506H175.298V29.6966H170.956V20.1506H168.042V17.0164H170.956V15.1263C170.956 11.9204 172.412 10.2457 176.431 10.2457C177.268 10.2457 178.131 10.2935 178.967 10.3892V13.3559" fill="#434343"/>
<path d="M179.21 22.9498C179.21 19.4089 181.098 16.7293 185.09 16.7293C187.248 16.7293 188.57 17.7102 189.218 18.9543V17.0164H193.372V29.7205H189.191V27.8065C188.597 29.0267 187.221 29.9837 185.063 29.9837C181.098 29.9837 179.183 27.328 179.183 23.7632M183.553 23.8111C183.553 25.7011 184.335 26.9691 186.358 26.9691C188.139 26.9691 189.029 25.8208 189.029 24.0025V22.7105C189.029 20.8922 188.112 19.7438 186.358 19.7438C184.335 19.7438 183.553 20.9879 183.553 22.9019V23.8111Z" fill="#F40009"/>
<path d="M179.21 22.9498C179.21 19.4089 181.098 16.7293 185.09 16.7293C187.248 16.7293 188.57 17.7102 189.218 18.9543V17.0164H193.372V29.7205H189.191V27.8065C188.597 29.0267 187.221 29.9837 185.063 29.9837C181.098 29.9837 179.183 27.328 179.183 23.7632M183.553 23.8111C183.553 25.7011 184.335 26.9691 186.358 26.9691C188.139 26.9691 189.029 25.8208 189.029 24.0025V22.7105C189.029 20.8922 188.112 19.7438 186.358 19.7438C184.335 19.7438 183.553 20.9879 183.553 22.9019V23.8111Z" fill="#434343"/>
<path d="M202.381 16.7293C204.054 16.7293 205.672 17.0403 206.536 17.5906L205.564 20.318C204.674 19.9352 203.676 19.7438 202.678 19.7438C200.331 19.7438 199.306 20.9401 199.306 22.9976V23.7393C199.306 25.7968 200.331 26.9931 202.678 26.9931C203.676 26.9931 204.674 26.7777 205.564 26.3949L206.536 29.1224C205.672 29.6487 204.081 29.9837 202.381 29.9837C197.283 29.9837 194.99 27.5673 194.99 23.6675V23.0694C194.99 19.1696 197.283 16.7293 202.381 16.7293Z" fill="#F40009"/>
<path d="M202.381 16.7293C204.054 16.7293 205.672 17.0403 206.536 17.5906L205.564 20.318C204.674 19.9352 203.676 19.7438 202.678 19.7438C200.331 19.7438 199.306 20.9401 199.306 22.9976V23.7393C199.306 25.7968 200.331 26.9931 202.678 26.9931C203.676 26.9931 204.674 26.7777 205.564 26.3949L206.536 29.1224C205.672 29.6487 204.081 29.9837 202.381 29.9837C197.283 29.9837 194.99 27.5673 194.99 23.6675V23.0694C194.99 19.1696 197.283 16.7293 202.381 16.7293Z" fill="#434343"/>
<path d="M207.102 23.835V22.7105C207.102 19.0979 209.422 16.7293 214.143 16.7293C218.593 16.7293 220.563 19.1218 220.563 22.6627V24.6963H211.445C211.526 26.4428 212.416 27.2084 214.817 27.2084C216.381 27.2084 217.946 26.9452 219.43 26.4428L220.212 29.0745C219.079 29.6009 216.732 30.0076 214.655 30.0076C209.152 29.9837 207.102 27.5673 207.102 23.835ZM211.445 22.1602H216.678V21.8492C216.678 20.4616 216.058 19.361 214.143 19.361C212.2 19.361 211.445 20.4616 211.445 22.1602Z" fill="#F40009"/>
<path d="M207.102 23.835V22.7105C207.102 19.0979 209.422 16.7293 214.143 16.7293C218.593 16.7293 220.563 19.1218 220.563 22.6627V24.6963H211.445C211.526 26.4428 212.416 27.2084 214.817 27.2084C216.381 27.2084 217.946 26.9452 219.43 26.4428L220.212 29.0745C219.079 29.6009 216.732 30.0076 214.655 30.0076C209.152 29.9837 207.102 27.5673 207.102 23.835ZM211.445 22.1602H216.678V21.8492C216.678 20.4616 216.058 19.361 214.143 19.361C212.2 19.361 211.445 20.4616 211.445 22.1602Z" fill="#434343"/>
<path d="M236.64 23.7632C236.64 27.3041 234.724 29.9837 230.732 29.9837C228.574 29.9837 227.063 29.0267 226.47 27.8065V29.7205H222.37V10.6285L226.713 10.2935V18.7868C227.333 17.6624 228.736 16.7532 230.759 16.7532C234.724 16.7532 236.667 19.4089 236.667 22.9737M232.297 22.878C232.297 21.0836 231.514 19.7438 229.437 19.7438C227.657 19.7438 226.713 20.8683 226.713 22.6866V24.0264C226.713 25.8447 227.684 26.9691 229.437 26.9691C231.514 26.9691 232.297 25.6293 232.297 23.835V22.878Z" fill="#F40009"/>
<path d="M236.64 23.7632C236.64 27.3041 234.724 29.9837 230.732 29.9837C228.574 29.9837 227.063 29.0267 226.47 27.8065V29.7205H222.37V10.6285L226.713 10.2935V18.7868C227.333 17.6624 228.736 16.7532 230.759 16.7532C234.724 16.7532 236.667 19.4089 236.667 22.9737M232.297 22.878C232.297 21.0836 231.514 19.7438 229.437 19.7438C227.657 19.7438 226.713 20.8683 226.713 22.6866V24.0264C226.713 25.8447 227.684 26.9691 229.437 26.9691C231.514 26.9691 232.297 25.6293 232.297 23.835V22.878Z" fill="#434343"/>
<path d="M238.069 23.6675V23.0215C238.069 19.361 240.416 16.7293 245.191 16.7293C249.965 16.7293 252.312 19.361 252.312 23.0215V23.6675C252.312 27.328 249.965 29.9597 245.191 29.9597C240.416 29.9597 238.069 27.3519 238.069 23.6675ZM247.996 22.7584C247.996 21.0836 247.214 19.7438 245.191 19.7438C243.167 19.7438 242.385 21.0836 242.385 22.7584V23.9546C242.385 25.6294 243.167 26.9691 245.191 26.9691C247.214 26.9691 247.996 25.6294 247.996 23.9546V22.7584Z" fill="#F40009"/>
<path d="M238.069 23.6675V23.0215C238.069 19.361 240.416 16.7293 245.191 16.7293C249.965 16.7293 252.312 19.361 252.312 23.0215V23.6675C252.312 27.328 249.965 29.9597 245.191 29.9597C240.416 29.9597 238.069 27.3519 238.069 23.6675ZM247.996 22.7584C247.996 21.0836 247.214 19.7438 245.191 19.7438C243.167 19.7438 242.385 21.0836 242.385 22.7584V23.9546C242.385 25.6294 243.167 26.9691 245.191 26.9691C247.214 26.9691 247.996 25.6294 247.996 23.9546V22.7584Z" fill="#434343"/>
<path d="M253.796 23.6675V23.0215C253.796 19.361 256.142 16.7293 260.917 16.7293C265.692 16.7293 268.038 19.361 268.038 23.0215V23.6675C268.038 27.328 265.692 29.9597 260.917 29.9597C256.142 29.9597 253.796 27.3519 253.796 23.6675ZM263.722 22.7584C263.722 21.0836 262.94 19.7438 260.917 19.7438C258.894 19.7438 258.112 21.0836 258.112 22.7584V23.9546C258.112 25.6294 258.894 26.9691 260.917 26.9691C262.94 26.9691 263.722 25.6294 263.722 23.9546V22.7584Z" fill="#F40009"/>
<path d="M253.796 23.6675V23.0215C253.796 19.361 256.142 16.7293 260.917 16.7293C265.692 16.7293 268.038 19.361 268.038 23.0215V23.6675C268.038 27.328 265.692 29.9597 260.917 29.9597C256.142 29.9597 253.796 27.3519 253.796 23.6675ZM263.722 22.7584C263.722 21.0836 262.94 19.7438 260.917 19.7438C258.894 19.7438 258.112 21.0836 258.112 22.7584V23.9546C258.112 25.6294 258.894 26.9691 260.917 26.9691C262.94 26.9691 263.722 25.6294 263.722 23.9546V22.7584Z" fill="#434343"/>
<path d="M274 23.0694L278.289 16.9925H282.875L278.397 23.2847L283.063 29.7205H278.451L274 23.5V29.7205H269.684V10.6285L274 10.2696" fill="#F40009"/>
<path d="M274 23.0694L278.289 16.9925H282.875L278.397 23.2847L283.063 29.7205H278.451L274 23.5V29.7205H269.684V10.6285L274 10.2696" fill="#434343"/>
<path d="M56.167 4.71813C56.9265 4.74968 57.6519 5.00733 58.2264 5.4496C59.0094 6.10791 59.2147 7.20564 58.8441 8.08393C57.4035 10.7177 53.9775 12.477 51.6364 13.0589C50.2358 13.3515 48.4651 13.3515 47.1881 12.9127C46.5698 13.2418 46.0483 14.3056 45.2933 13.8636C44.2007 13.1056 45.1465 11.9193 44.5158 11.0776C44.3857 10.9043 44.058 10.8916 43.8933 10.608C43.028 8.92511 44.0992 7.31536 45.2933 6.0353C47.2842 4.06247 52.9958 1.86437 56.167 4.71813ZM49.5358 6.03477C48.4234 6.21764 47.1672 6.6475 46.4881 7.35194C45.8084 8.05584 45.3763 8.74225 45.7881 9.47371C47.2298 8.52281 47.9299 7.20564 49.5363 6.40103C49.5357 6.25421 49.7828 6.14449 49.5358 6.03477ZM56.25 6.40103C53.4076 6.18106 51.2658 8.08393 49.2475 9.91259C49.124 10.2052 48.3828 10.5343 48.9593 10.8635C51.6781 11.0829 54.2729 10.3886 56.25 8.77829C56.827 8.30284 57.2376 7.68109 56.9506 7.02225C56.827 6.76676 56.5364 6.51075 56.25 6.40103ZM80.879 17.3025C82.1973 20.1563 83.3091 24.6553 80.879 27.3993C80.2202 28.0577 79.0673 28.6646 78.3261 28.1674C75.6072 26.229 74.4549 23.4484 72.766 20.9603C72.519 20.8506 72.519 21.1437 72.3954 21.2535C71.7778 23.7775 72.9307 27.0702 70.9954 29.0451C70.2542 29.1549 69.5608 28.8162 69.3066 28.1674C68.3589 25.5702 69.3465 22.8627 69.5936 20.2655C70.1707 18.9483 70.4177 17.4122 71.6948 16.4242C73.7543 17.1557 74.7425 19.2048 75.936 20.7049C76.8019 21.8386 77.5013 23.1192 78.4896 24.1433C79.3543 23.8141 78.9288 22.8102 78.9019 22.2044C78.5713 19.8266 77.8302 17.6317 77.1296 15.3636C77.0896 14.7784 76.719 13.7904 77.4178 13.4247C79.2737 14.1567 80.0549 15.8756 80.879 17.3025ZM68.4407 16.4242C68.4407 16.9733 67.9465 17.6592 67.5336 17.7414C63.58 18.29 59.1729 17.9608 55.4664 19.058C55.3429 19.4603 55.8782 19.5335 56.1664 19.6432C59.337 20.0821 62.6741 20.1918 65.7636 20.8872C67.3969 21.2556 67.9883 22.9729 68.1118 24.3993C68.1876 25.524 67.7007 26.8868 66.4642 27.6554C63.4171 29.3748 58.7629 29.3012 55.6729 27.729C54.4919 27.1407 53.3664 26.193 53.284 25.0221C53.2912 24.0924 53.7376 23.3604 54.4788 23.01C57.4447 21.9489 61.11 22.5351 63.6642 23.8878C63.8277 24.6198 62.9361 24.58 62.5094 24.8392C59.667 26.3027 57.5258 23.194 54.8899 24.3267C54.5193 24.5461 54.2514 25.1583 54.684 25.3512C57.9376 26.6318 61.5624 25.717 64.7747 24.9124C65.1453 24.8026 65.5989 24.4735 65.6395 24.1443C65.5159 22.9735 64.0336 22.718 63.0859 22.3888C60.2853 21.7671 57.1964 21.7671 54.1893 21.5111C53.6128 21.4013 52.8782 21.0446 52.707 20.6333C52.3775 19.7555 52.3775 18.5481 53.1187 17.8166C56.9488 14.8166 62.7559 15.0731 67.6159 15.8777C67.9459 15.9853 68.3165 16.095 68.4407 16.4242ZM50.4422 17.8145C50.8128 21.3261 51.0187 24.5827 50.9364 28.2771C50.854 28.752 50.2363 28.8623 49.8246 29.0451C49.1658 29.1549 48.3142 29.0303 48.0534 28.716C47.1063 27.3617 47.4357 25.5336 47.3534 23.8873C47.4769 21.2906 47.4357 18.4734 48.2599 16.0585C48.4174 15.7076 48.8775 15.4002 49.2481 15.6191C50.2364 16.0585 50.4011 16.9368 50.4422 17.8145ZM96.2022 17.3025C96.4003 17.5983 96.6074 18.0552 96.2022 18.2534C94.3486 18.9849 91.8368 18.6557 89.6944 18.8751C89.118 19.314 88.6644 20.0455 88.8697 20.7043C89.0768 20.8141 89.2612 20.981 89.4886 20.9598C90.8056 21.0335 92.7833 20.4112 93.6492 21.5084C93.8605 21.8349 93.6206 23.054 93.0315 23.0816C91.4245 23.2655 88.782 22.9024 88.0056 23.2655C87.0174 23.8507 87.0991 24.9845 86.7285 25.8998C87.4291 26.3021 88.1625 25.8903 88.9932 25.7896C90.5186 25.5702 92.2074 25.1679 93.7304 25.4604C94.0186 25.9359 94.431 26.4484 94.1421 27.0336C91.5456 28.8628 88.1966 30.7376 84.6285 29.4114C83.2894 28.8782 82.6926 27.0702 83.1461 25.5346C83.4338 24.4369 84.7103 23.3763 83.9285 22.2054C83.805 21.6929 84.135 21.2545 84.6291 21.1448C85.9879 21.1448 85.6991 19.6448 86.3997 18.9493C85.6173 18.1813 83.6409 18.2179 83.8467 16.6813C84.7944 16.2424 85.948 16.3887 87.0173 16.2424C89.4474 15.803 92.1656 15.547 94.6386 15.803C95.131 15.891 95.7904 16.7539 96.2022 17.3025ZM37.3856 8.96169C41.1864 11.7211 46.1175 16.4247 45.4998 21.8386C44.758 26.1193 39.6509 29.3383 35.3262 30.3628C31.125 31.46 25.8531 31.3503 21.569 30.4726C21.2807 31.168 20.9925 32.0086 20.0866 32.3017C19.5101 32.4846 18.7683 32.3749 18.3154 32.0457C17.0389 30.9846 18.0683 28.9359 16.2148 28.2782C12.59 26.9244 8.67705 24.2535 6.8241 20.9614C6.57703 20.3031 6.86527 19.6448 7.31822 19.1327C10.1606 17.1207 13.7436 16.3161 17.3272 15.6938C17.533 15.767 17.4507 15.5109 17.6154 15.4378C17.8213 13.2429 17.9036 11.0108 18.686 9.03536C18.8644 8.75815 19.3036 8.66963 19.5925 8.8525C21.8578 10.3886 20.7866 13.2794 21.7754 15.3641C26.1002 15.547 30.425 15.7298 33.8432 17.8887C34.9968 18.7299 35.2778 20.3365 34.9138 21.2545C34.5504 22.171 33.3491 22.8277 32.2367 22.8998C31.495 22.8998 30.0949 22.9639 30.1773 22.4614C30.2596 21.9584 32.6968 21.1353 31.9485 20.4489C30.8725 19.4624 25.4891 18.8757 22.1526 18.5099C21.7408 18.4368 21.3631 18.5465 21.3631 18.9488C21.2807 21.7289 21.0337 24.8016 21.569 27.473C21.6101 27.6564 21.8572 27.8759 22.0637 27.9114C27.9532 28.7531 34.1726 28.2771 38.7856 25.2776C40.9274 23.742 41.628 21.5821 41.2568 19.2048C39.4033 12.5835 31.6191 8.59542 25.2349 6.03477C19.016 3.62041 12.1371 2.37639 4.76466 2.70608C3.59082 2.78241 1.73071 3.14231 1.71698 3.51122C1.70326 3.88013 3.82416 3.76405 3.56994 4.46212C3.31631 5.15966 1.1608 4.7457 0.522258 4.57184C-0.116281 4.39799 -0.0542171 3.58384 0.11049 3.07181C1.71698 0.54773 6.19988 0.343663 8.2247 0.255145C19.4272 -0.00139707 30.2602 3.78791 37.3856 8.96169ZM17.2036 18.766C14.3612 18.8025 11.3547 19.0585 8.71882 19.9363C8.18353 20.1192 7.5241 20.6312 7.93587 21.2535C9.00646 22.5335 10.5378 23.5846 11.9724 24.3261C13.407 25.0666 15.3089 26.009 17.0389 26.229C17.4507 23.8507 17.4507 21.5095 17.4095 19.0585C17.2442 18.9854 17.4089 18.8391 17.2036 18.766ZM102.338 15.4367C102.215 18.6191 98.8775 20.5951 98.8775 23.7775C99.001 23.8873 99.0845 24.0336 99.2481 23.9615C101.926 21.3637 104.562 17.6688 108.475 16.5716C109.506 16.4984 110.437 17.294 110.823 17.8887C112.182 20.3031 111.854 23.7055 109.959 25.9004C108.003 28.055 104.603 30.2171 100.733 29.8508C99.1275 33.3629 98.0133 37.0579 97.3957 40.8991C97.0663 41.6671 96.2845 40.9722 95.7904 40.826C92.4545 38.4847 95.1936 32.2869 95.4198 31.4961C95.646 30.7074 96.5387 28.8469 97.1916 27.2891C95.6263 24.8021 96.6145 21.8015 97.891 19.4969C98.8792 17.9603 100.24 16.4237 101.846 15.2533C102.05 15.2539 102.215 15.2904 102.338 15.4367ZM108.971 19.3877C108.476 19.3146 108.27 19.9002 107.859 20.01C105.965 21.9123 104.069 23.8146 103.122 26.0827C104.399 26.229 105.469 25.4975 106.582 25.0952C108.476 24.0341 109.671 22.2791 109.548 20.2665C109.465 19.9363 109.135 19.6803 108.971 19.3877Z" fill="#F40009"/>
<path d="M56.167 4.71813C56.9265 4.74968 57.6519 5.00733 58.2264 5.4496C59.0094 6.10791 59.2147 7.20564 58.8441 8.08393C57.4035 10.7177 53.9775 12.477 51.6364 13.0589C50.2358 13.3515 48.4651 13.3515 47.1881 12.9127C46.5698 13.2418 46.0483 14.3056 45.2933 13.8636C44.2007 13.1056 45.1465 11.9193 44.5158 11.0776C44.3857 10.9043 44.058 10.8916 43.8933 10.608C43.028 8.92511 44.0992 7.31536 45.2933 6.0353C47.2842 4.06247 52.9958 1.86437 56.167 4.71813ZM49.5358 6.03477C48.4234 6.21764 47.1672 6.6475 46.4881 7.35194C45.8084 8.05584 45.3763 8.74225 45.7881 9.47371C47.2298 8.52281 47.9299 7.20564 49.5363 6.40103C49.5357 6.25421 49.7828 6.14449 49.5358 6.03477ZM56.25 6.40103C53.4076 6.18106 51.2658 8.08393 49.2475 9.91259C49.124 10.2052 48.3828 10.5343 48.9593 10.8635C51.6781 11.0829 54.2729 10.3886 56.25 8.77829C56.827 8.30284 57.2376 7.68109 56.9506 7.02225C56.827 6.76676 56.5364 6.51075 56.25 6.40103ZM80.879 17.3025C82.1973 20.1563 83.3091 24.6553 80.879 27.3993C80.2202 28.0577 79.0673 28.6646 78.3261 28.1674C75.6072 26.229 74.4549 23.4484 72.766 20.9603C72.519 20.8506 72.519 21.1437 72.3954 21.2535C71.7778 23.7775 72.9307 27.0702 70.9954 29.0451C70.2542 29.1549 69.5608 28.8162 69.3066 28.1674C68.3589 25.5702 69.3465 22.8627 69.5936 20.2655C70.1707 18.9483 70.4177 17.4122 71.6948 16.4242C73.7543 17.1557 74.7425 19.2048 75.936 20.7049C76.8019 21.8386 77.5013 23.1192 78.4896 24.1433C79.3543 23.8141 78.9288 22.8102 78.9019 22.2044C78.5713 19.8266 77.8302 17.6317 77.1296 15.3636C77.0896 14.7784 76.719 13.7904 77.4178 13.4247C79.2737 14.1567 80.0549 15.8756 80.879 17.3025ZM68.4407 16.4242C68.4407 16.9733 67.9465 17.6592 67.5336 17.7414C63.58 18.29 59.1729 17.9608 55.4664 19.058C55.3429 19.4603 55.8782 19.5335 56.1664 19.6432C59.337 20.0821 62.6741 20.1918 65.7636 20.8872C67.3969 21.2556 67.9883 22.9729 68.1118 24.3993C68.1876 25.524 67.7007 26.8868 66.4642 27.6554C63.4171 29.3748 58.7629 29.3012 55.6729 27.729C54.4919 27.1407 53.3664 26.193 53.284 25.0221C53.2912 24.0924 53.7376 23.3604 54.4788 23.01C57.4447 21.9489 61.11 22.5351 63.6642 23.8878C63.8277 24.6198 62.9361 24.58 62.5094 24.8392C59.667 26.3027 57.5258 23.194 54.8899 24.3267C54.5193 24.5461 54.2514 25.1583 54.684 25.3512C57.9376 26.6318 61.5624 25.717 64.7747 24.9124C65.1453 24.8026 65.5989 24.4735 65.6395 24.1443C65.5159 22.9735 64.0336 22.718 63.0859 22.3888C60.2853 21.7671 57.1964 21.7671 54.1893 21.5111C53.6128 21.4013 52.8782 21.0446 52.707 20.6333C52.3775 19.7555 52.3775 18.5481 53.1187 17.8166C56.9488 14.8166 62.7559 15.0731 67.6159 15.8777C67.9459 15.9853 68.3165 16.095 68.4407 16.4242ZM50.4422 17.8145C50.8128 21.3261 51.0187 24.5827 50.9364 28.2771C50.854 28.752 50.2363 28.8623 49.8246 29.0451C49.1658 29.1549 48.3142 29.0303 48.0534 28.716C47.1063 27.3617 47.4357 25.5336 47.3534 23.8873C47.4769 21.2906 47.4357 18.4734 48.2599 16.0585C48.4174 15.7076 48.8775 15.4002 49.2481 15.6191C50.2364 16.0585 50.4011 16.9368 50.4422 17.8145ZM96.2022 17.3025C96.4003 17.5983 96.6074 18.0552 96.2022 18.2534C94.3486 18.9849 91.8368 18.6557 89.6944 18.8751C89.118 19.314 88.6644 20.0455 88.8697 20.7043C89.0768 20.8141 89.2612 20.981 89.4886 20.9598C90.8056 21.0335 92.7833 20.4112 93.6492 21.5084C93.8605 21.8349 93.6206 23.054 93.0315 23.0816C91.4245 23.2655 88.782 22.9024 88.0056 23.2655C87.0174 23.8507 87.0991 24.9845 86.7285 25.8998C87.4291 26.3021 88.1625 25.8903 88.9932 25.7896C90.5186 25.5702 92.2074 25.1679 93.7304 25.4604C94.0186 25.9359 94.431 26.4484 94.1421 27.0336C91.5456 28.8628 88.1966 30.7376 84.6285 29.4114C83.2894 28.8782 82.6926 27.0702 83.1461 25.5346C83.4338 24.4369 84.7103 23.3763 83.9285 22.2054C83.805 21.6929 84.135 21.2545 84.6291 21.1448C85.9879 21.1448 85.6991 19.6448 86.3997 18.9493C85.6173 18.1813 83.6409 18.2179 83.8467 16.6813C84.7944 16.2424 85.948 16.3887 87.0173 16.2424C89.4474 15.803 92.1656 15.547 94.6386 15.803C95.131 15.891 95.7904 16.7539 96.2022 17.3025ZM37.3856 8.96169C41.1864 11.7211 46.1175 16.4247 45.4998 21.8386C44.758 26.1193 39.6509 29.3383 35.3262 30.3628C31.125 31.46 25.8531 31.3503 21.569 30.4726C21.2807 31.168 20.9925 32.0086 20.0866 32.3017C19.5101 32.4846 18.7683 32.3749 18.3154 32.0457C17.0389 30.9846 18.0683 28.9359 16.2148 28.2782C12.59 26.9244 8.67705 24.2535 6.8241 20.9614C6.57703 20.3031 6.86527 19.6448 7.31822 19.1327C10.1606 17.1207 13.7436 16.3161 17.3272 15.6938C17.533 15.767 17.4507 15.5109 17.6154 15.4378C17.8213 13.2429 17.9036 11.0108 18.686 9.03536C18.8644 8.75815 19.3036 8.66963 19.5925 8.8525C21.8578 10.3886 20.7866 13.2794 21.7754 15.3641C26.1002 15.547 30.425 15.7298 33.8432 17.8887C34.9968 18.7299 35.2778 20.3365 34.9138 21.2545C34.5504 22.171 33.3491 22.8277 32.2367 22.8998C31.495 22.8998 30.0949 22.9639 30.1773 22.4614C30.2596 21.9584 32.6968 21.1353 31.9485 20.4489C30.8725 19.4624 25.4891 18.8757 22.1526 18.5099C21.7408 18.4368 21.3631 18.5465 21.3631 18.9488C21.2807 21.7289 21.0337 24.8016 21.569 27.473C21.6101 27.6564 21.8572 27.8759 22.0637 27.9114C27.9532 28.7531 34.1726 28.2771 38.7856 25.2776C40.9274 23.742 41.628 21.5821 41.2568 19.2048C39.4033 12.5835 31.6191 8.59542 25.2349 6.03477C19.016 3.62041 12.1371 2.37639 4.76466 2.70608C3.59082 2.78241 1.73071 3.14231 1.71698 3.51122C1.70326 3.88013 3.82416 3.76405 3.56994 4.46212C3.31631 5.15966 1.1608 4.7457 0.522258 4.57184C-0.116281 4.39799 -0.0542171 3.58384 0.11049 3.07181C1.71698 0.54773 6.19988 0.343663 8.2247 0.255145C19.4272 -0.00139707 30.2602 3.78791 37.3856 8.96169ZM17.2036 18.766C14.3612 18.8025 11.3547 19.0585 8.71882 19.9363C8.18353 20.1192 7.5241 20.6312 7.93587 21.2535C9.00646 22.5335 10.5378 23.5846 11.9724 24.3261C13.407 25.0666 15.3089 26.009 17.0389 26.229C17.4507 23.8507 17.4507 21.5095 17.4095 19.0585C17.2442 18.9854 17.4089 18.8391 17.2036 18.766ZM102.338 15.4367C102.215 18.6191 98.8775 20.5951 98.8775 23.7775C99.001 23.8873 99.0845 24.0336 99.2481 23.9615C101.926 21.3637 104.562 17.6688 108.475 16.5716C109.506 16.4984 110.437 17.294 110.823 17.8887C112.182 20.3031 111.854 23.7055 109.959 25.9004C108.003 28.055 104.603 30.2171 100.733 29.8508C99.1275 33.3629 98.0133 37.0579 97.3957 40.8991C97.0663 41.6671 96.2845 40.9722 95.7904 40.826C92.4545 38.4847 95.1936 32.2869 95.4198 31.4961C95.646 30.7074 96.5387 28.8469 97.1916 27.2891C95.6263 24.8021 96.6145 21.8015 97.891 19.4969C98.8792 17.9603 100.24 16.4237 101.846 15.2533C102.05 15.2539 102.215 15.2904 102.338 15.4367ZM108.971 19.3877C108.476 19.3146 108.27 19.9002 107.859 20.01C105.965 21.9123 104.069 23.8146 103.122 26.0827C104.399 26.229 105.469 25.4975 106.582 25.0952C108.476 24.0341 109.671 22.2791 109.548 20.2665C109.465 19.9363 109.135 19.6803 108.971 19.3877Z" fill="#434343"/>
<path d="M735.577 13.039H732.246L730.367 15.741H733.697L735.577 13.039ZM744.219 20.1483C742.474 20.2764 739.391 21.661 737.711 24.6862C736.032 27.7115 736.026 29.579 736.026 29.579C736.026 29.579 736.912 28.7179 738.269 27.8163C739.627 26.9146 740.638 26.5943 740.638 26.5943C740.638 26.5943 740.889 25.4836 741.516 24.3219C742.126 23.1919 743.094 22.0154 744.291 21.7485C746.718 21.2067 745.556 25.1351 743.773 27.6966C742.815 29.0733 739.417 33.0299 736.491 33.0299C733.566 33.0299 733.001 30.5281 733.618 28.189C734.235 25.8503 735.088 22.879 739.356 17.48C743.624 12.081 748.244 8.88025 750.918 7.53519C753.665 6.15455 754.784 6.7596 754.784 6.7596C754.784 6.7596 751.278 8.6751 749.283 10.9796C747.376 13.1823 746.238 15.6609 747.123 16.8754C747.965 18.0326 750.936 18.0544 754.207 13.8655C757.436 9.73048 756.62 7.27172 756.62 7.27172C756.62 7.27172 757.011 7.15901 757.273 7.12787C758.847 6.94201 760.108 7.31028 762.061 8.19857C764.107 9.12938 766.07 10.6222 768.76 11.8437C769.57 11.0567 770.471 10.2208 771.419 9.40522C767.793 7.8397 765.04 5.60832 761.484 5.39428C758.388 5.20842 755.948 6.20893 755.948 6.20893C755.948 6.20893 755.004 5.06852 752.091 5.44075C749.178 5.81347 740.204 9.14125 732.569 19.9857C725.666 29.7906 728.919 35.4096 733.881 35.3453C739.26 35.2751 744.377 29.9695 746.108 25.5943C747.84 21.219 745.794 20.0332 744.219 20.1483ZM754.778 11.0375C753.874 12.992 752.543 14.3578 751.234 15.4009C749.554 16.739 748.632 16.694 748.233 16.4251C747.191 15.7212 748.589 13.0667 751.016 10.6929C753.434 8.32858 755.515 7.59303 755.515 7.59303C755.515 7.62071 755.861 8.69389 754.778 11.0375ZM784.732 8.18721C782.27 9.59158 778.858 10.8635 775.582 10.5832C774.754 11.3459 773.866 12.2248 772.975 13.1863C778.659 14.1809 783.632 11.0572 786.279 8.39581C787.931 6.73637 788.746 5.25488 788.746 5.25488C788.746 5.25488 787.169 6.79618 784.732 8.18721Z" fill="#F40009"/>
<path d="M735.577 13.039H732.246L730.367 15.741H733.697L735.577 13.039ZM744.219 20.1483C742.474 20.2764 739.391 21.661 737.711 24.6862C736.032 27.7115 736.026 29.579 736.026 29.579C736.026 29.579 736.912 28.7179 738.269 27.8163C739.627 26.9146 740.638 26.5943 740.638 26.5943C740.638 26.5943 740.889 25.4836 741.516 24.3219C742.126 23.1919 743.094 22.0154 744.291 21.7485C746.718 21.2067 745.556 25.1351 743.773 27.6966C742.815 29.0733 739.417 33.0299 736.491 33.0299C733.566 33.0299 733.001 30.5281 733.618 28.189C734.235 25.8503 735.088 22.879 739.356 17.48C743.624 12.081 748.244 8.88025 750.918 7.53519C753.665 6.15455 754.784 6.7596 754.784 6.7596C754.784 6.7596 751.278 8.6751 749.283 10.9796C747.376 13.1823 746.238 15.6609 747.123 16.8754C747.965 18.0326 750.936 18.0544 754.207 13.8655C757.436 9.73048 756.62 7.27172 756.62 7.27172C756.62 7.27172 757.011 7.15901 757.273 7.12787C758.847 6.94201 760.108 7.31028 762.061 8.19857C764.107 9.12938 766.07 10.6222 768.76 11.8437C769.57 11.0567 770.471 10.2208 771.419 9.40522C767.793 7.8397 765.04 5.60832 761.484 5.39428C758.388 5.20842 755.948 6.20893 755.948 6.20893C755.948 6.20893 755.004 5.06852 752.091 5.44075C749.178 5.81347 740.204 9.14125 732.569 19.9857C725.666 29.7906 728.919 35.4096 733.881 35.3453C739.26 35.2751 744.377 29.9695 746.108 25.5943C747.84 21.219 745.794 20.0332 744.219 20.1483ZM754.778 11.0375C753.874 12.992 752.543 14.3578 751.234 15.4009C749.554 16.739 748.632 16.694 748.233 16.4251C747.191 15.7212 748.589 13.0667 751.016 10.6929C753.434 8.32858 755.515 7.59303 755.515 7.59303C755.515 7.62071 755.861 8.69389 754.778 11.0375ZM784.732 8.18721C782.27 9.59158 778.858 10.8635 775.582 10.5832C774.754 11.3459 773.866 12.2248 772.975 13.1863C778.659 14.1809 783.632 11.0572 786.279 8.39581C787.931 6.73637 788.746 5.25488 788.746 5.25488C788.746 5.25488 787.169 6.79618 784.732 8.18721Z" fill="#434343"/>
<path d="M782.043 20.5097H778.54L777.971 21.2897C777.971 21.2897 777.256 20.1464 776.046 20.1647C773.973 20.1963 771.898 21.6002 769.487 24.0352C767.719 25.8192 764.79 29.7911 764.79 29.7911C764.79 29.7911 762.542 32.8633 761.405 32.6226C759.467 32.2118 763.032 25.8504 763.032 25.8504C763.032 25.8504 764.907 24.8237 767.335 23.011C768.865 21.8701 770.624 20.3006 772.242 18.8458C773.713 17.5225 775.446 15.7256 777.093 13.7573C776.671 13.8166 776.239 13.8566 775.798 13.8759C774.321 15.604 772.743 17.1508 771.402 18.3802C769.405 20.2101 767.568 21.7074 766.233 22.6625C764.954 23.577 764.133 23.9887 764.133 23.9887C764.133 23.9887 766.574 19.5443 770.64 14.6337C774.707 9.72358 780.402 5.16197 779.955 7.32612C779.828 7.94748 779.392 8.83874 778.735 9.8966C779.198 9.81108 779.647 9.7043 780.081 9.5827C781.061 7.7888 781.394 6.31028 780.663 5.88319C777.679 4.14021 770.089 11.3524 766.284 15.5413C762.48 19.7302 759.037 26.1316 759.037 26.1316C759.037 26.1316 758.441 26.3531 757.783 26.4638C757.368 26.534 757.191 26.5187 757.123 26.495C757.089 26.4826 757.085 26.4618 757.085 26.4618C757.085 26.4618 760.432 20.9126 757.005 20.1765C753.698 19.4667 747.969 24.8924 745.932 28.6665C744.534 31.2558 743.745 34.5154 746.142 35.2914C748.739 36.1323 753.148 31.9286 754.185 30.7071C755.222 29.4851 756.516 27.4535 756.516 27.4535C756.516 27.4535 757.149 27.4238 757.495 27.3788C758.157 27.2923 758.467 27.2201 758.467 27.2201C758.467 27.2201 758.038 28.2172 757.574 29.4812C756.708 31.8381 755.927 35.2104 759.043 35.369C761.029 35.4694 763.941 32.2894 763.941 32.2894C763.941 32.2894 763.158 35.1169 765.734 35.369C767.636 35.5549 770.405 32.9483 770.405 32.9483C770.405 32.9483 769.802 35.1941 771.73 35.3918C773.381 35.5613 775.725 33.8446 777.646 31.9557C779.745 29.8934 781.354 27.6349 781.354 27.6349H780.134C780.134 27.6349 777.434 31.2701 775.538 32.2429C773.981 33.0418 774.515 31.762 774.987 31.0912C775.507 30.3512 782.041 20.5097 782.041 20.5102L782.043 20.5097ZM755.354 27.3566C755.306 27.4539 754.43 28.8069 753.492 29.8707C752.481 31.017 750.631 32.7422 749.519 32.3774C747.781 31.807 749.694 28.448 750.945 26.8187C752.195 25.1895 752.337 25.0792 752.372 25.0367C752.408 24.9942 752.443 24.9551 752.473 25.0056C752.504 25.056 752.902 25.7253 753.688 26.3061C754.477 26.8894 755.236 27.1974 755.297 27.2167C755.359 27.236 755.403 27.2592 755.354 27.3561V27.3566ZM756.136 26.146C756.026 26.3081 755.948 26.316 755.72 26.2621C755.319 26.1657 753.656 25.4841 753.669 23.9719C753.681 22.4984 756.022 21.0549 756.941 21.6719C757.798 22.2472 757.389 23.7184 757.065 24.4687C756.743 25.2186 756.208 26.0397 756.136 26.146ZM772.049 29.7911C771.587 30.3536 771.2 30.8618 770.851 31.2187C770.105 31.9824 769.619 32.3379 769.185 32.4318C768.967 32.4787 768.696 32.4674 768.516 32.371C767.88 32.0274 768.326 30.6898 769.434 28.8914C770.448 27.2478 771.619 25.6032 773.545 23.7099C775.478 21.8093 776.218 21.7178 776.759 21.7396C777.214 21.7569 777.279 22.1815 777.279 22.1815C777.279 22.1815 777.247 22.2799 777.174 22.3911C776.536 23.3723 773.321 28.2444 772.049 29.7911H772.049ZM720.38 32.1688C718.256 31.0047 715.531 30.2577 712.4 30.2335C704.336 30.1712 695.555 33.6463 689.607 33.6933C682.593 33.7477 682.243 28.9611 682.763 26.3328C683.882 20.6704 688.411 15.2684 691.322 12.4201C694.234 9.57183 697.286 7.36171 699.823 6.7967C702.36 6.23169 702.121 7.94303 701.811 8.17685C701.49 8.18278 700.876 8.24407 700.527 8.45812C699.981 8.79228 699.251 9.40425 699.205 10.3746C699.127 11.8694 701.305 12.1314 702.879 9.00138C703.953 6.8664 702.25 5.41754 700.836 5.27814C698.895 5.08634 695.93 5.68447 692.391 7.7018C686.231 11.2125 677.992 19.0084 677.782 27.6581C677.662 32.5924 681.297 35.369 686.283 35.369C691.27 35.369 698.04 32.6607 704.651 32.5914C708.744 32.5603 711.393 33.8327 712.734 35.9049C712.734 35.9049 714.067 33.938 717.036 33.8327C719.974 33.7279 723.207 34.458 725.862 36.113C724.976 34.978 722.473 33.3156 720.379 32.1688H720.38Z" fill="#F40009"/>
<path d="M782.043 20.5097H778.54L777.971 21.2897C777.971 21.2897 777.256 20.1464 776.046 20.1647C773.973 20.1963 771.898 21.6002 769.487 24.0352C767.719 25.8192 764.79 29.7911 764.79 29.7911C764.79 29.7911 762.542 32.8633 761.405 32.6226C759.467 32.2118 763.032 25.8504 763.032 25.8504C763.032 25.8504 764.907 24.8237 767.335 23.011C768.865 21.8701 770.624 20.3006 772.242 18.8458C773.713 17.5225 775.446 15.7256 777.093 13.7573C776.671 13.8166 776.239 13.8566 775.798 13.8759C774.321 15.604 772.743 17.1508 771.402 18.3802C769.405 20.2101 767.568 21.7074 766.233 22.6625C764.954 23.577 764.133 23.9887 764.133 23.9887C764.133 23.9887 766.574 19.5443 770.64 14.6337C774.707 9.72358 780.402 5.16197 779.955 7.32612C779.828 7.94748 779.392 8.83874 778.735 9.8966C779.198 9.81108 779.647 9.7043 780.081 9.5827C781.061 7.7888 781.394 6.31028 780.663 5.88319C777.679 4.14021 770.089 11.3524 766.284 15.5413C762.48 19.7302 759.037 26.1316 759.037 26.1316C759.037 26.1316 758.441 26.3531 757.783 26.4638C757.368 26.534 757.191 26.5187 757.123 26.495C757.089 26.4826 757.085 26.4618 757.085 26.4618C757.085 26.4618 760.432 20.9126 757.005 20.1765C753.698 19.4667 747.969 24.8924 745.932 28.6665C744.534 31.2558 743.745 34.5154 746.142 35.2914C748.739 36.1323 753.148 31.9286 754.185 30.7071C755.222 29.4851 756.516 27.4535 756.516 27.4535C756.516 27.4535 757.149 27.4238 757.495 27.3788C758.157 27.2923 758.467 27.2201 758.467 27.2201C758.467 27.2201 758.038 28.2172 757.574 29.4812C756.708 31.8381 755.927 35.2104 759.043 35.369C761.029 35.4694 763.941 32.2894 763.941 32.2894C763.941 32.2894 763.158 35.1169 765.734 35.369C767.636 35.5549 770.405 32.9483 770.405 32.9483C770.405 32.9483 769.802 35.1941 771.73 35.3918C773.381 35.5613 775.725 33.8446 777.646 31.9557C779.745 29.8934 781.354 27.6349 781.354 27.6349H780.134C780.134 27.6349 777.434 31.2701 775.538 32.2429C773.981 33.0418 774.515 31.762 774.987 31.0912C775.507 30.3512 782.041 20.5097 782.041 20.5102L782.043 20.5097ZM755.354 27.3566C755.306 27.4539 754.43 28.8069 753.492 29.8707C752.481 31.017 750.631 32.7422 749.519 32.3774C747.781 31.807 749.694 28.448 750.945 26.8187C752.195 25.1895 752.337 25.0792 752.372 25.0367C752.408 24.9942 752.443 24.9551 752.473 25.0056C752.504 25.056 752.902 25.7253 753.688 26.3061C754.477 26.8894 755.236 27.1974 755.297 27.2167C755.359 27.236 755.403 27.2592 755.354 27.3561V27.3566ZM756.136 26.146C756.026 26.3081 755.948 26.316 755.72 26.2621C755.319 26.1657 753.656 25.4841 753.669 23.9719C753.681 22.4984 756.022 21.0549 756.941 21.6719C757.798 22.2472 757.389 23.7184 757.065 24.4687C756.743 25.2186 756.208 26.0397 756.136 26.146ZM772.049 29.7911C771.587 30.3536 771.2 30.8618 770.851 31.2187C770.105 31.9824 769.619 32.3379 769.185 32.4318C768.967 32.4787 768.696 32.4674 768.516 32.371C767.88 32.0274 768.326 30.6898 769.434 28.8914C770.448 27.2478 771.619 25.6032 773.545 23.7099C775.478 21.8093 776.218 21.7178 776.759 21.7396C777.214 21.7569 777.279 22.1815 777.279 22.1815C777.279 22.1815 777.247 22.2799 777.174 22.3911C776.536 23.3723 773.321 28.2444 772.049 29.7911H772.049ZM720.38 32.1688C718.256 31.0047 715.531 30.2577 712.4 30.2335C704.336 30.1712 695.555 33.6463 689.607 33.6933C682.593 33.7477 682.243 28.9611 682.763 26.3328C683.882 20.6704 688.411 15.2684 691.322 12.4201C694.234 9.57183 697.286 7.36171 699.823 6.7967C702.36 6.23169 702.121 7.94303 701.811 8.17685C701.49 8.18278 700.876 8.24407 700.527 8.45812C699.981 8.79228 699.251 9.40425 699.205 10.3746C699.127 11.8694 701.305 12.1314 702.879 9.00138C703.953 6.8664 702.25 5.41754 700.836 5.27814C698.895 5.08634 695.93 5.68447 692.391 7.7018C686.231 11.2125 677.992 19.0084 677.782 27.6581C677.662 32.5924 681.297 35.369 686.283 35.369C691.27 35.369 698.04 32.6607 704.651 32.5914C708.744 32.5603 711.393 33.8327 712.734 35.9049C712.734 35.9049 714.067 33.938 717.036 33.8327C719.974 33.7279 723.207 34.458 725.862 36.113C724.976 34.978 722.473 33.3156 720.379 32.1688H720.38Z" fill="#434343"/>
<path d="M702.014 12.7365C698.633 11.9723 693.018 17.0766 690.652 21.2309C689.193 23.7935 688.553 27.014 691.151 27.8519C693.749 28.6898 698.156 24.489 699.193 23.2675C700.23 22.0456 701.926 19.5982 701.926 19.5982C701.926 19.5982 702.447 19.5092 702.788 19.439C703.129 19.3688 703.68 19.2294 703.68 19.2294C703.68 19.2294 703.041 20.2398 702.464 21.2754C701.78 22.5033 699.922 26.5909 703.51 27.8168C706.937 28.9878 711.817 24.1044 712.073 24.012C712.073 24.012 710.621 27.3398 712.877 27.8519C715.353 28.4134 718.066 25.6003 718.066 25.6003C718.066 25.6003 717.494 27.712 719.423 27.9102C722.878 28.2646 728.988 20.4282 728.988 20.4282H727.767C727.767 20.4282 724.658 23.9769 723.163 24.71C721.667 25.4431 722.205 24.1405 722.611 23.5582C723.13 22.8172 729.735 13.0276 729.735 13.0276H726.232L725.826 13.5976C725.826 13.5976 725.104 12.6203 723.898 12.69C720.387 12.8932 716.21 17.8562 714.373 20.0436C712.536 22.2314 708.574 26.4085 706.488 25.664C704.215 24.8523 706.475 21.1261 707.971 18.9383C709.599 16.5566 712.484 14.1977 713.625 14.1794C715.029 14.1562 714.478 15.2847 714.478 15.2847C714.478 15.2847 713.428 15.1686 712.667 16.0178C712.129 16.6184 711.683 17.4953 712.195 17.9724C713.021 18.743 714.097 17.9605 714.74 17.0875C716.744 14.3673 715.278 12.9337 713.704 12.7246C710.351 12.2783 707.262 16.0989 704.914 17.5186C703.285 18.5028 702.604 18.4261 702.604 18.4261C702.604 18.4261 705.431 13.5086 702.014 12.736L702.014 12.7365ZM717.193 21.5335C718.207 19.8893 719.588 18.3021 721.385 16.3124C723.183 14.3228 724.077 14.1616 724.618 14.1834C725.074 14.2012 725.138 14.6253 725.138 14.6253C725.138 14.6253 721.233 20.6605 719.816 22.3827C719.354 22.9452 718.958 23.4218 718.609 23.7792C717.863 24.5429 717.322 24.9122 716.904 25.0041C716.685 25.0516 716.414 25.0397 716.234 24.9428C715.598 24.5992 716.083 23.3313 717.192 21.5335H717.193ZM700.619 19.5749C700.57 19.6718 699.455 21.3076 698.517 22.3713C697.508 23.5177 695.641 25.2498 694.529 24.885C692.791 24.3145 694.645 20.9788 695.896 19.35C697.146 17.7207 697.33 17.5112 697.365 17.4691C697.401 17.4261 697.435 17.3871 697.466 17.438C697.496 17.4884 697.894 18.2141 698.756 18.7025C699.618 19.1914 700.501 19.4163 700.562 19.4355C700.624 19.4548 700.668 19.4786 700.619 19.5749H700.619ZM702.073 17.0287C701.75 17.7796 701.461 18.2526 701.401 18.3644C701.305 18.5433 701.065 18.486 701.065 18.486C700.791 18.4751 698.664 18.0445 698.676 16.5324C698.688 15.0588 701.031 13.6154 701.948 14.2323C702.806 14.8077 702.396 16.2788 702.073 17.0287ZM779.407 33.5752C779.202 33.4723 778.975 33.4214 778.725 33.4214C778.474 33.4214 778.247 33.4728 778.042 33.5752C777.838 33.678 777.677 33.8174 777.56 33.9948C777.443 34.1718 777.384 34.3646 777.384 34.5722C777.384 34.7798 777.442 34.9761 777.56 35.152C777.677 35.3275 777.838 35.4669 778.042 35.5693C778.247 35.6721 778.474 35.723 778.725 35.723C778.975 35.723 779.202 35.6716 779.407 35.5693C779.611 35.4669 779.772 35.3275 779.889 35.152C780.007 34.9766 780.066 34.7833 780.066 34.5722C780.066 34.3611 780.007 34.1718 779.889 33.9948C779.772 33.8179 779.611 33.678 779.407 33.5752ZM779.647 35.0487C779.558 35.1891 779.434 35.2994 779.274 35.3799C779.114 35.46 778.93 35.5001 778.725 35.5001C778.519 35.5001 778.336 35.46 778.176 35.3799C778.016 35.2999 777.891 35.1896 777.802 35.0487C777.714 34.9083 777.669 34.7492 777.669 34.5722C777.669 34.3952 777.714 34.2405 777.802 34.1001C777.891 33.9597 778.016 33.8495 778.178 33.7689C778.34 33.6884 778.522 33.6488 778.725 33.6488C778.928 33.6488 779.11 33.6889 779.271 33.7689C779.433 33.849 779.558 33.9592 779.647 34.1001C779.736 34.2405 779.78 34.3982 779.78 34.5722C779.78 34.7462 779.736 34.9083 779.647 35.0487Z" fill="#F40009"/>
<path d="M702.014 12.7365C698.633 11.9723 693.018 17.0766 690.652 21.2309C689.193 23.7935 688.553 27.014 691.151 27.8519C693.749 28.6898 698.156 24.489 699.193 23.2675C700.23 22.0456 701.926 19.5982 701.926 19.5982C701.926 19.5982 702.447 19.5092 702.788 19.439C703.129 19.3688 703.68 19.2294 703.68 19.2294C703.68 19.2294 703.041 20.2398 702.464 21.2754C701.78 22.5033 699.922 26.5909 703.51 27.8168C706.937 28.9878 711.817 24.1044 712.073 24.012C712.073 24.012 710.621 27.3398 712.877 27.8519C715.353 28.4134 718.066 25.6003 718.066 25.6003C718.066 25.6003 717.494 27.712 719.423 27.9102C722.878 28.2646 728.988 20.4282 728.988 20.4282H727.767C727.767 20.4282 724.658 23.9769 723.163 24.71C721.667 25.4431 722.205 24.1405 722.611 23.5582C723.13 22.8172 729.735 13.0276 729.735 13.0276H726.232L725.826 13.5976C725.826 13.5976 725.104 12.6203 723.898 12.69C720.387 12.8932 716.21 17.8562 714.373 20.0436C712.536 22.2314 708.574 26.4085 706.488 25.664C704.215 24.8523 706.475 21.1261 707.971 18.9383C709.599 16.5566 712.484 14.1977 713.625 14.1794C715.029 14.1562 714.478 15.2847 714.478 15.2847C714.478 15.2847 713.428 15.1686 712.667 16.0178C712.129 16.6184 711.683 17.4953 712.195 17.9724C713.021 18.743 714.097 17.9605 714.74 17.0875C716.744 14.3673 715.278 12.9337 713.704 12.7246C710.351 12.2783 707.262 16.0989 704.914 17.5186C703.285 18.5028 702.604 18.4261 702.604 18.4261C702.604 18.4261 705.431 13.5086 702.014 12.736L702.014 12.7365ZM717.193 21.5335C718.207 19.8893 719.588 18.3021 721.385 16.3124C723.183 14.3228 724.077 14.1616 724.618 14.1834C725.074 14.2012 725.138 14.6253 725.138 14.6253C725.138 14.6253 721.233 20.6605 719.816 22.3827C719.354 22.9452 718.958 23.4218 718.609 23.7792C717.863 24.5429 717.322 24.9122 716.904 25.0041C716.685 25.0516 716.414 25.0397 716.234 24.9428C715.598 24.5992 716.083 23.3313 717.192 21.5335H717.193ZM700.619 19.5749C700.57 19.6718 699.455 21.3076 698.517 22.3713C697.508 23.5177 695.641 25.2498 694.529 24.885C692.791 24.3145 694.645 20.9788 695.896 19.35C697.146 17.7207 697.33 17.5112 697.365 17.4691C697.401 17.4261 697.435 17.3871 697.466 17.438C697.496 17.4884 697.894 18.2141 698.756 18.7025C699.618 19.1914 700.501 19.4163 700.562 19.4355C700.624 19.4548 700.668 19.4786 700.619 19.5749H700.619ZM702.073 17.0287C701.75 17.7796 701.461 18.2526 701.401 18.3644C701.305 18.5433 701.065 18.486 701.065 18.486C700.791 18.4751 698.664 18.0445 698.676 16.5324C698.688 15.0588 701.031 13.6154 701.948 14.2323C702.806 14.8077 702.396 16.2788 702.073 17.0287ZM779.407 33.5752C779.202 33.4723 778.975 33.4214 778.725 33.4214C778.474 33.4214 778.247 33.4728 778.042 33.5752C777.838 33.678 777.677 33.8174 777.56 33.9948C777.443 34.1718 777.384 34.3646 777.384 34.5722C777.384 34.7798 777.442 34.9761 777.56 35.152C777.677 35.3275 777.838 35.4669 778.042 35.5693C778.247 35.6721 778.474 35.723 778.725 35.723C778.975 35.723 779.202 35.6716 779.407 35.5693C779.611 35.4669 779.772 35.3275 779.889 35.152C780.007 34.9766 780.066 34.7833 780.066 34.5722C780.066 34.3611 780.007 34.1718 779.889 33.9948C779.772 33.8179 779.611 33.678 779.407 33.5752ZM779.647 35.0487C779.558 35.1891 779.434 35.2994 779.274 35.3799C779.114 35.46 778.93 35.5001 778.725 35.5001C778.519 35.5001 778.336 35.46 778.176 35.3799C778.016 35.2999 777.891 35.1896 777.802 35.0487C777.714 34.9083 777.669 34.7492 777.669 34.5722C777.669 34.3952 777.714 34.2405 777.802 34.1001C777.891 33.9597 778.016 33.8495 778.178 33.7689C778.34 33.6884 778.522 33.6488 778.725 33.6488C778.928 33.6488 779.11 33.6889 779.271 33.7689C779.433 33.849 779.558 33.9592 779.647 34.1001C779.736 34.2405 779.78 34.3982 779.78 34.5722C779.78 34.7462 779.736 34.9083 779.647 35.0487Z" fill="#434343"/>
<path d="M779.228 34.5533C779.266 34.4984 779.285 34.4372 779.285 34.37C779.285 34.277 779.251 34.1995 779.183 34.1362C779.115 34.0729 779.024 34.0413 778.91 34.0413H778.23V35.0826H778.53V34.703H778.757L779.033 35.0826H779.376L779.067 34.6778C779.136 34.6497 779.191 34.6082 779.228 34.5533ZM778.943 34.4436C778.921 34.4619 778.891 34.4708 778.853 34.4708H778.53V34.2686H778.853C778.891 34.2686 778.921 34.278 778.943 34.2958C778.965 34.3141 778.977 34.3388 778.977 34.3695C778.977 34.4001 778.965 34.4248 778.943 34.4431V34.4436Z" fill="#F40009"/>
<path d="M779.228 34.5533C779.266 34.4984 779.285 34.4372 779.285 34.37C779.285 34.277 779.251 34.1995 779.183 34.1362C779.115 34.0729 779.024 34.0413 778.91 34.0413H778.23V35.0826H778.53V34.703H778.757L779.033 35.0826H779.376L779.067 34.6778C779.136 34.6497 779.191 34.6082 779.228 34.5533ZM778.943 34.4436C778.921 34.4619 778.891 34.4708 778.853 34.4708H778.53V34.2686H778.853C778.891 34.2686 778.921 34.278 778.943 34.2958C778.965 34.3141 778.977 34.3388 778.977 34.3695C778.977 34.4001 778.965 34.4248 778.943 34.4431V34.4436Z" fill="#434343"/>
<mask id="mask0_5_85" style="mask-type:alpha" maskUnits="userSpaceOnUse" x="339" y="9" width="116" height="23">
<path d="M454.475 19.0979V17.3038H451.963V14.5147L451.878 14.5378L449.519 15.178L449.472 15.1906V17.3039H445.748V16.1266C445.748 15.5784 445.886 15.1589 446.159 14.8791C446.429 14.6027 446.816 14.4622 447.31 14.4622C447.664 14.4622 448.032 14.5363 448.401 14.6824L448.494 14.7191V12.8297L448.45 12.8155C448.106 12.7056 447.637 12.6502 447.055 12.6502C446.323 12.6502 445.657 12.7916 445.076 13.0719C444.495 13.3526 444.038 13.7532 443.718 14.2626C443.399 14.7714 443.237 15.3591 443.237 16.0095V17.3038H441.488V19.0979H443.237V26.6561H445.748V19.0979H449.472V23.901C449.472 25.8792 450.524 26.8816 452.599 26.8816C452.94 26.8816 453.299 26.8462 453.665 26.7768C454.038 26.7056 454.292 26.6344 454.442 26.5584L454.475 26.5411V24.7304L454.373 24.7903C454.236 24.8708 454.067 24.9366 453.868 24.9856C453.668 25.0354 453.501 25.0604 453.372 25.0604C452.886 25.0604 452.526 24.9442 452.303 24.715C452.077 24.4837 451.963 24.0792 451.963 23.5133V19.0979H454.475ZM435.881 25.0607C434.969 25.0607 434.251 24.7926 433.745 24.2647C433.235 23.734 432.977 22.9775 432.977 22.0163C432.977 21.0246 433.235 20.2485 433.745 19.7085C434.251 19.172 434.963 18.8998 435.86 18.8998C436.731 18.8998 437.424 19.1598 437.921 19.673C438.419 20.189 438.673 20.9589 438.673 21.9622C438.673 22.9777 438.435 23.7578 437.965 24.2797C437.499 24.7976 436.798 25.0607 435.881 25.0607ZM435.992 17.0785C434.254 17.0785 432.873 17.5304 431.888 18.4216C430.904 19.3129 430.405 20.5464 430.405 22.0881C430.405 23.5524 430.892 24.7302 431.853 25.5882C432.813 26.4466 434.121 26.8814 435.738 26.8814C437.424 26.8814 438.777 26.4232 439.761 25.5197C440.746 24.6171 441.244 23.3953 441.244 21.8896C441.244 20.4024 440.776 19.2158 439.853 18.3635C438.93 17.5108 437.63 17.0785 435.992 17.0785ZM426.357 17.0785C425.174 17.0785 424.195 17.3468 423.448 17.8759C422.696 18.4081 422.315 19.1061 422.315 19.9507C422.315 20.3898 422.397 20.7798 422.559 21.1106C422.722 21.4425 422.974 21.7347 423.309 21.9799C423.642 22.2232 424.155 22.478 424.836 22.7372C425.408 22.9459 425.834 23.1225 426.105 23.2616C426.37 23.398 426.558 23.5351 426.664 23.6686C426.767 23.7993 426.819 23.9781 426.819 24.1988C426.819 24.8271 426.289 25.1328 425.197 25.1328C424.792 25.1328 424.33 25.0578 423.824 24.91C423.322 24.7644 422.848 24.5512 422.419 24.2778L422.314 24.2115V26.3556L422.353 26.3714C422.708 26.5169 423.156 26.6395 423.684 26.7361C424.211 26.8327 424.69 26.8818 425.106 26.8818C426.389 26.8818 427.423 26.6122 428.177 26.08C428.936 25.5441 429.32 24.8297 429.32 23.9558C429.32 23.3254 429.113 22.7848 428.705 22.3488C428.3 21.9164 427.596 21.5194 426.615 21.1684C425.833 20.8901 425.332 20.6591 425.126 20.4818C424.927 20.3105 424.826 20.0682 424.826 19.7614C424.826 19.4894 424.95 19.2715 425.207 19.095C425.465 18.9177 425.824 18.8275 426.275 18.8275C426.694 18.8275 427.122 18.8861 427.547 19.001C427.973 19.1159 428.346 19.2697 428.658 19.4579L428.761 19.5201V17.4862L428.721 17.4712C428.434 17.3617 428.054 17.2681 427.593 17.1921C427.135 17.1166 426.718 17.0785 426.357 17.0785ZM415.769 25.0607C414.858 25.0607 414.139 24.7926 413.633 24.2647C413.123 23.734 412.865 22.9777 412.865 22.0163C412.865 21.0246 413.123 20.2485 413.633 19.7085C414.139 19.172 414.851 18.8998 415.749 18.8998C416.619 18.8998 417.312 19.1598 417.809 19.673C418.308 20.189 418.561 20.9589 418.561 21.9622C418.561 22.9777 418.323 23.7578 417.853 24.2797C417.387 24.7976 416.686 25.0607 415.769 25.0607ZM415.881 17.0785C414.141 17.0785 412.76 17.5304 411.776 18.4216C410.792 19.3129 410.293 20.5464 410.293 22.0881C410.293 23.553 410.78 24.7302 411.741 25.5882C412.702 26.4466 414.009 26.8814 415.626 26.8814C417.312 26.8814 418.665 26.4232 419.65 25.5197C420.634 24.6171 421.132 23.3953 421.132 21.8896C421.132 20.4024 420.664 19.2158 419.741 18.3635C418.817 17.5108 417.518 17.0785 415.881 17.0785ZM406.481 18.9234V17.3038H404.001V26.6559H406.481V21.872C406.481 21.0585 406.689 20.3902 407.1 19.8854C407.505 19.3867 408.045 19.1339 408.704 19.1339C408.927 19.1339 409.178 19.1666 409.45 19.2312C409.718 19.2955 409.913 19.3652 410.028 19.4387L410.132 19.5057V17.2878L410.092 17.2725C409.861 17.1855 409.534 17.1416 409.121 17.1416C408.497 17.1416 407.94 17.3192 407.462 17.6689C407.043 17.9764 406.739 18.3978 406.508 18.9234H406.481ZM399.559 17.0785C398.421 17.0785 397.406 17.2949 396.543 17.7215C395.678 18.1491 395.009 18.7596 394.554 19.5359C394.1 20.3103 393.87 21.2148 393.87 22.2236C393.87 23.1072 394.093 23.9181 394.534 24.6328C394.976 25.3486 395.6 25.9087 396.39 26.2971C397.18 26.685 398.092 26.8817 399.102 26.8817C400.281 26.8817 401.287 26.6727 402.094 26.2605L402.127 26.2439V24.2285L402.022 24.296C401.657 24.5321 401.248 24.7206 400.809 24.8564C400.371 24.9921 399.971 25.0607 399.62 25.0607C398.647 25.0607 397.866 24.7906 397.299 24.2581C396.73 23.7249 396.442 22.9761 396.442 22.034C396.442 21.0859 396.743 20.318 397.335 19.7513C397.926 19.1863 398.708 18.8998 399.661 18.8998C400.477 18.8998 401.271 19.1446 402.023 19.6281L402.127 19.6952V17.5715L402.093 17.5548C401.81 17.4143 401.425 17.2984 400.946 17.2105C400.469 17.1227 400.002 17.0785 399.559 17.0785ZM392.162 17.3039H389.682V26.6559H392.162V17.3039ZM390.947 13.3199C390.539 13.3199 390.183 13.4431 389.89 13.6874C389.597 13.9323 389.448 14.2407 389.448 14.6047C389.448 14.9629 389.595 15.2657 389.886 15.5041C390.175 15.7418 390.532 15.8623 390.947 15.8623C391.362 15.8623 391.721 15.7418 392.013 15.5045C392.308 15.2657 392.457 14.963 392.457 14.6047C392.457 14.2534 392.312 13.9482 392.026 13.6973C391.74 13.4468 391.377 13.3199 390.947 13.3199ZM384.759 16.6139V26.6559H387.29V13.6062H383.786L379.333 23.2991L375.012 13.6062H371.366V26.6558H373.745V16.6129H373.826L378.39 26.6559H380.185L384.677 16.6139H384.759Z" fill="#F40009"/>
<path d="M454.475 19.0979V17.3038H451.963V14.5147L451.878 14.5378L449.519 15.178L449.472 15.1906V17.3039H445.748V16.1266C445.748 15.5784 445.886 15.1589 446.159 14.8791C446.429 14.6027 446.816 14.4622 447.31 14.4622C447.664 14.4622 448.032 14.5363 448.401 14.6824L448.494 14.7191V12.8297L448.45 12.8155C448.106 12.7056 447.637 12.6502 447.055 12.6502C446.323 12.6502 445.657 12.7916 445.076 13.0719C444.495 13.3526 444.038 13.7532 443.718 14.2626C443.399 14.7714 443.237 15.3591 443.237 16.0095V17.3038H441.488V19.0979H443.237V26.6561H445.748V19.0979H449.472V23.901C449.472 25.8792 450.524 26.8816 452.599 26.8816C452.94 26.8816 453.299 26.8462 453.665 26.7768C454.038 26.7056 454.292 26.6344 454.442 26.5584L454.475 26.5411V24.7304L454.373 24.7903C454.236 24.8708 454.067 24.9366 453.868 24.9856C453.668 25.0354 453.501 25.0604 453.372 25.0604C452.886 25.0604 452.526 24.9442 452.303 24.715C452.077 24.4837 451.963 24.0792 451.963 23.5133V19.0979H454.475ZM435.881 25.0607C434.969 25.0607 434.251 24.7926 433.745 24.2647C433.235 23.734 432.977 22.9775 432.977 22.0163C432.977 21.0246 433.235 20.2485 433.745 19.7085C434.251 19.172 434.963 18.8998 435.86 18.8998C436.731 18.8998 437.424 19.1598 437.921 19.673C438.419 20.189 438.673 20.9589 438.673 21.9622C438.673 22.9777 438.435 23.7578 437.965 24.2797C437.499 24.7976 436.798 25.0607 435.881 25.0607ZM435.992 17.0785C434.254 17.0785 432.873 17.5304 431.888 18.4216C430.904 19.3129 430.405 20.5464 430.405 22.0881C430.405 23.5524 430.892 24.7302 431.853 25.5882C432.813 26.4466 434.121 26.8814 435.738 26.8814C437.424 26.8814 438.777 26.4232 439.761 25.5197C440.746 24.6171 441.244 23.3953 441.244 21.8896C441.244 20.4024 440.776 19.2158 439.853 18.3635C438.93 17.5108 437.63 17.0785 435.992 17.0785ZM426.357 17.0785C425.174 17.0785 424.195 17.3468 423.448 17.8759C422.696 18.4081 422.315 19.1061 422.315 19.9507C422.315 20.3898 422.397 20.7798 422.559 21.1106C422.722 21.4425 422.974 21.7347 423.309 21.9799C423.642 22.2232 424.155 22.478 424.836 22.7372C425.408 22.9459 425.834 23.1225 426.105 23.2616C426.37 23.398 426.558 23.5351 426.664 23.6686C426.767 23.7993 426.819 23.9781 426.819 24.1988C426.819 24.8271 426.289 25.1328 425.197 25.1328C424.792 25.1328 424.33 25.0578 423.824 24.91C423.322 24.7644 422.848 24.5512 422.419 24.2778L422.314 24.2115V26.3556L422.353 26.3714C422.708 26.5169 423.156 26.6395 423.684 26.7361C424.211 26.8327 424.69 26.8818 425.106 26.8818C426.389 26.8818 427.423 26.6122 428.177 26.08C428.936 25.5441 429.32 24.8297 429.32 23.9558C429.32 23.3254 429.113 22.7848 428.705 22.3488C428.3 21.9164 427.596 21.5194 426.615 21.1684C425.833 20.8901 425.332 20.6591 425.126 20.4818C424.927 20.3105 424.826 20.0682 424.826 19.7614C424.826 19.4894 424.95 19.2715 425.207 19.095C425.465 18.9177 425.824 18.8275 426.275 18.8275C426.694 18.8275 427.122 18.8861 427.547 19.001C427.973 19.1159 428.346 19.2697 428.658 19.4579L428.761 19.5201V17.4862L428.721 17.4712C428.434 17.3617 428.054 17.2681 427.593 17.1921C427.135 17.1166 426.718 17.0785 426.357 17.0785ZM415.769 25.0607C414.858 25.0607 414.139 24.7926 413.633 24.2647C413.123 23.734 412.865 22.9777 412.865 22.0163C412.865 21.0246 413.123 20.2485 413.633 19.7085C414.139 19.172 414.851 18.8998 415.749 18.8998C416.619 18.8998 417.312 19.1598 417.809 19.673C418.308 20.189 418.561 20.9589 418.561 21.9622C418.561 22.9777 418.323 23.7578 417.853 24.2797C417.387 24.7976 416.686 25.0607 415.769 25.0607ZM415.881 17.0785C414.141 17.0785 412.76 17.5304 411.776 18.4216C410.792 19.3129 410.293 20.5464 410.293 22.0881C410.293 23.553 410.78 24.7302 411.741 25.5882C412.702 26.4466 414.009 26.8814 415.626 26.8814C417.312 26.8814 418.665 26.4232 419.65 25.5197C420.634 24.6171 421.132 23.3953 421.132 21.8896C421.132 20.4024 420.664 19.2158 419.741 18.3635C418.817 17.5108 417.518 17.0785 415.881 17.0785ZM406.481 18.9234V17.3038H404.001V26.6559H406.481V21.872C406.481 21.0585 406.689 20.3902 407.1 19.8854C407.505 19.3867 408.045 19.1339 408.704 19.1339C408.927 19.1339 409.178 19.1666 409.45 19.2312C409.718 19.2955 409.913 19.3652 410.028 19.4387L410.132 19.5057V17.2878L410.092 17.2725C409.861 17.1855 409.534 17.1416 409.121 17.1416C408.497 17.1416 407.94 17.3192 407.462 17.6689C407.043 17.9764 406.739 18.3978 406.508 18.9234H406.481ZM399.559 17.0785C398.421 17.0785 397.406 17.2949 396.543 17.7215C395.678 18.1491 395.009 18.7596 394.554 19.5359C394.1 20.3103 393.87 21.2148 393.87 22.2236C393.87 23.1072 394.093 23.9181 394.534 24.6328C394.976 25.3486 395.6 25.9087 396.39 26.2971C397.18 26.685 398.092 26.8817 399.102 26.8817C400.281 26.8817 401.287 26.6727 402.094 26.2605L402.127 26.2439V24.2285L402.022 24.296C401.657 24.5321 401.248 24.7206 400.809 24.8564C400.371 24.9921 399.971 25.0607 399.62 25.0607C398.647 25.0607 397.866 24.7906 397.299 24.2581C396.73 23.7249 396.442 22.9761 396.442 22.034C396.442 21.0859 396.743 20.318 397.335 19.7513C397.926 19.1863 398.708 18.8998 399.661 18.8998C400.477 18.8998 401.271 19.1446 402.023 19.6281L402.127 19.6952V17.5715L402.093 17.5548C401.81 17.4143 401.425 17.2984 400.946 17.2105C400.469 17.1227 400.002 17.0785 399.559 17.0785ZM392.162 17.3039H389.682V26.6559H392.162V17.3039ZM390.947 13.3199C390.539 13.3199 390.183 13.4431 389.89 13.6874C389.597 13.9323 389.448 14.2407 389.448 14.6047C389.448 14.9629 389.595 15.2657 389.886 15.5041C390.175 15.7418 390.532 15.8623 390.947 15.8623C391.362 15.8623 391.721 15.7418 392.013 15.5045C392.308 15.2657 392.457 14.963 392.457 14.6047C392.457 14.2534 392.312 13.9482 392.026 13.6973C391.74 13.4468 391.377 13.3199 390.947 13.3199ZM384.759 16.6139V26.6559H387.29V13.6062H383.786L379.333 23.2991L375.012 13.6062H371.366V26.6558H373.745V16.6129H373.826L378.39 26.6559H380.185L384.677 16.6139H384.759Z" fill="#434343"/>
<path d="M351.122 19.5943H339.453V9.24536H351.122V19.5943Z" fill="#F40009"/>
<path d="M351.122 19.5943H339.453V9.24536H351.122V19.5943Z" fill="#434343"/>
<path d="M364.005 19.5943H352.337V9.24536H364.005V19.5943Z" fill="#F40009"/>
<path d="M364.005 19.5943H352.337V9.24536H364.005V19.5943Z" fill="#434343"/>
<path d="M351.121 31.0247H339.453V20.6759H351.121V31.0247Z" fill="#F40009"/>
<path d="M351.121 31.0247H339.453V20.6759H351.121V31.0247Z" fill="#434343"/>
<path d="M364.005 31.0247H352.337V20.6759H364.005V31.0247Z" fill="#F40009"/>
<path d="M364.005 31.0247H352.337V20.6759H364.005V31.0247Z" fill="#434343"/>
</mask>
<g mask="url(#mask0_5_85)">
<rect x="320" y="-18" width="137" height="85" fill="#F40009"/>
<rect x="320" y="-18" width="137" height="85" fill="#434343"/>
</g>
</svg>
